<svg width="62" height="62" viewBox="0 0 62 62" fill="none" xmlns="http://www.w3.org/2000/svg">
<g opacity="0.1" clip-path="url(#clip0_1_262)">
<path d="M39.074 43.001L42.1931 49.5309M49.4455 31.4706C47.6544 36.5376 43.9238 40.6855 39.0744 43.0019C34.225 45.3183 28.6541 45.6134 23.5871 43.8223C18.5202 42.0312 14.3722 38.3006 12.0558 33.4512C9.73944 28.6018 9.44434 23.0309 11.2354 17.9639L49.4455 31.4706ZM9.11266 17.2135L16.7354 19.9081L9.11266 17.2135ZM51.5683 32.221L43.9456 29.5265L51.5683 32.221ZM34.3572 53.2738L50.029 45.7879L34.3572 53.2738Z" stroke="black" stroke-width="2" stroke-miterlimit="10" stroke-linecap="round" stroke-linejoin="round"/>
<path d="M36.5787 37.7771C43.7914 34.3318 46.8456 25.6918 43.4003 18.4791C39.955 11.2664 31.315 8.21225 24.1023 11.6575C16.8895 15.1028 13.8354 23.7428 17.2807 30.9555C20.726 38.1683 29.366 41.2224 36.5787 37.7771Z" stroke="black" stroke-width="2" stroke-miterlimit="10" stroke-linecap="round" stroke-linejoin="round"/>
</g>
<defs>
<clipPath id="clip0_1_262">
<rect width="46.3142" height="46.3142" fill="white" transform="translate(0 19.9624) rotate(-25.5323)"/>
</clipPath>
</defs>
</svg>
