<svg width="122" height="60" viewBox="0 0 122 60" fill="none" xmlns="http://www.w3.org/2000/svg">
<path d="M30.1025 13.1377L30.8594 24.3926H30.1025C29.0934 21.0234 27.653 18.5983 25.7812 17.1172C23.9095 15.6361 21.6634 14.8955 19.043 14.8955C16.8457 14.8955 14.86 15.457 13.0859 16.5801C11.3118 17.6868 9.91211 19.4609 8.88672 21.9023C7.8776 24.3438 7.37305 27.3792 7.37305 31.0088C7.37305 34.0036 7.85319 36.5996 8.81348 38.7969C9.77376 40.9941 11.2142 42.6787 13.1348 43.8506C15.0716 45.0225 17.277 45.6084 19.751 45.6084C21.8994 45.6084 23.7956 45.1527 25.4395 44.2412C27.0833 43.3135 28.89 41.4824 30.8594 38.748L31.6162 39.2363C29.9561 42.1823 28.0192 44.3389 25.8057 45.7061C23.5921 47.0732 20.9635 47.7568 17.9199 47.7568C12.4349 47.7568 8.18685 45.7223 5.17578 41.6533C2.92969 38.626 1.80664 35.0615 1.80664 30.96C1.80664 27.6559 2.5472 24.6204 4.02832 21.8535C5.50944 19.0866 7.54395 16.9463 10.1318 15.4326C12.736 13.9027 15.5762 13.1377 18.6523 13.1377C21.0449 13.1377 23.4049 13.7236 25.7324 14.8955C26.416 15.2536 26.9043 15.4326 27.1973 15.4326C27.6367 15.4326 28.0192 15.278 28.3447 14.9688C28.7679 14.5293 29.069 13.9189 29.248 13.1377H30.1025ZM62.0117 37.8447L62.8174 38.0156L59.9854 47H34.3506V46.0967H35.5957C36.9954 46.0967 37.9964 45.641 38.5986 44.7295C38.9404 44.2087 39.1113 43.0042 39.1113 41.1162V19.7539C39.1113 17.6868 38.8835 16.3929 38.4277 15.8721C37.793 15.1559 36.849 14.7979 35.5957 14.7979H34.3506V13.8945H49.3408V14.7979C47.583 14.7816 46.346 14.9443 45.6299 15.2861C44.93 15.6279 44.4499 16.0592 44.1895 16.5801C43.929 17.1009 43.7988 18.346 43.7988 20.3154V41.1162C43.7988 42.4671 43.929 43.3949 44.1895 43.8994C44.3848 44.2412 44.6859 44.4935 45.0928 44.6562C45.4997 44.819 46.7692 44.9004 48.9014 44.9004H51.3184C53.8574 44.9004 55.6396 44.7132 56.665 44.3389C57.6904 43.9645 58.6263 43.3053 59.4727 42.3613C60.319 41.401 61.1654 39.8955 62.0117 37.8447ZM86.792 35.916H73.9746L71.7285 41.1406C71.1751 42.4264 70.8984 43.3867 70.8984 44.0215C70.8984 44.526 71.1344 44.9736 71.6064 45.3643C72.0947 45.7386 73.1364 45.9827 74.7314 46.0967V47H64.3066V46.0967C65.6901 45.8525 66.5853 45.5352 66.9922 45.1445C67.8223 44.3633 68.7419 42.7764 69.751 40.3838L81.3965 13.1377H82.251L93.7744 40.6768C94.7021 42.8903 95.5404 44.3307 96.2891 44.998C97.054 45.6491 98.112 46.0153 99.4629 46.0967V47H86.4014V46.0967C87.7197 46.0316 88.6068 45.8118 89.0625 45.4375C89.5345 45.0632 89.7705 44.6074 89.7705 44.0703C89.7705 43.3542 89.445 42.223 88.7939 40.6768L86.792 35.916ZM86.1084 34.1094L80.4932 20.7305L74.7314 34.1094H86.1084Z" fill="black"/>
<path d="M13.2559 26.6807V28.7383H14.7188V29.2168H13.2559V33.2773C13.2559 33.6829 13.3128 33.9564 13.4268 34.0977C13.5452 34.2389 13.6956 34.3096 13.8779 34.3096C14.0283 34.3096 14.1742 34.264 14.3154 34.1729C14.4567 34.0771 14.5661 33.9382 14.6436 33.7559H14.9102C14.7507 34.2025 14.5251 34.5397 14.2334 34.7676C13.9417 34.9909 13.641 35.1025 13.3311 35.1025C13.1214 35.1025 12.9163 35.0456 12.7158 34.9316C12.5153 34.8132 12.3672 34.6468 12.2715 34.4326C12.1758 34.2139 12.1279 33.8789 12.1279 33.4277V29.2168H11.1367V28.9912C11.3874 28.891 11.6426 28.7223 11.9023 28.4854C12.1667 28.2438 12.4014 27.959 12.6064 27.6309C12.7113 27.4577 12.8571 27.141 13.0439 26.6807H13.2559ZM17.1729 25.2793V29.8594C17.6787 29.3034 18.0798 28.9479 18.376 28.793C18.6722 28.6335 18.9684 28.5537 19.2646 28.5537C19.6201 28.5537 19.9255 28.6517 20.1807 28.8477C20.4359 29.0436 20.625 29.3512 20.748 29.7705C20.8346 30.0622 20.8779 30.5954 20.8779 31.3701V33.585C20.8779 33.9814 20.9098 34.2526 20.9736 34.3984C21.0192 34.5078 21.0967 34.5944 21.2061 34.6582C21.3154 34.722 21.516 34.7539 21.8076 34.7539V35H18.7314V34.7539H18.875C19.1667 34.7539 19.3695 34.7106 19.4834 34.624C19.5973 34.5329 19.6771 34.4007 19.7227 34.2275C19.7363 34.1546 19.7432 33.9404 19.7432 33.585V31.3701C19.7432 30.6865 19.7067 30.2376 19.6338 30.0234C19.5654 29.8092 19.4538 29.6497 19.2988 29.5449C19.1439 29.4355 18.957 29.3809 18.7383 29.3809C18.515 29.3809 18.2826 29.4401 18.041 29.5586C17.7995 29.6771 17.5101 29.9163 17.1729 30.2764V33.585C17.1729 34.0133 17.1956 34.2799 17.2412 34.3848C17.2913 34.4896 17.3802 34.5785 17.5078 34.6514C17.64 34.7197 17.8656 34.7539 18.1846 34.7539V35H15.0811V34.7539C15.359 34.7539 15.5778 34.7106 15.7373 34.624C15.8285 34.5785 15.9014 34.4919 15.9561 34.3643C16.0107 34.2367 16.0381 33.9769 16.0381 33.585V27.918C16.0381 27.2025 16.0199 26.7627 15.9834 26.5986C15.9515 26.4346 15.8991 26.3229 15.8262 26.2637C15.7578 26.2044 15.6644 26.1748 15.5459 26.1748C15.4502 26.1748 15.2952 26.2113 15.0811 26.2842L14.9854 26.0449L16.8584 25.2793H17.1729ZM23.3867 31.0967C23.3822 32.0264 23.6077 32.7555 24.0635 33.2842C24.5192 33.8128 25.0547 34.0771 25.6699 34.0771C26.0801 34.0771 26.4355 33.9655 26.7363 33.7422C27.0417 33.5143 27.2969 33.127 27.502 32.5801L27.7139 32.7168C27.6182 33.3411 27.3402 33.9108 26.8799 34.4258C26.4196 34.9362 25.8431 35.1914 25.1504 35.1914C24.3984 35.1914 23.7536 34.8997 23.2158 34.3164C22.6826 33.7285 22.416 32.9401 22.416 31.9512C22.416 30.8802 22.6895 30.0462 23.2363 29.4492C23.7878 28.8477 24.4782 28.5469 25.3076 28.5469C26.0094 28.5469 26.5859 28.7793 27.0371 29.2441C27.4883 29.7044 27.7139 30.3219 27.7139 31.0967H23.3867ZM23.3867 30.7002H26.2852C26.2624 30.2992 26.2145 30.0166 26.1416 29.8525C26.0277 29.5973 25.8568 29.3968 25.6289 29.251C25.4056 29.1051 25.1709 29.0322 24.9248 29.0322C24.5465 29.0322 24.207 29.1803 23.9062 29.4766C23.61 29.7682 23.4368 30.1761 23.3867 30.7002Z" fill="black"/>
<path fill-rule="evenodd" clip-rule="evenodd" d="M121.5 34.0001L121.575 33.9999C120.478 34.6764 119.276 35.2003 118 35.5419V47H112V35.769C105.739 34.5966 101 29.1017 101 22.5001C101 17.3272 103.909 12.8339 108.181 10.5671C106.796 12.8878 106 15.601 106 18.5001C106 27.0605 112.94 34.0001 121.5 34.0001Z" fill="#4A6B85"/>
</svg>
